# xmcd CD database file
#
# Track frame offsets:
#	150
#	20292
#	35134
#	57636
#	73063
#	90784
#	109292
#	122579
#	134719
#	146279
#	167905
#	182313
#	197939
#	215257
#	230371
#	244821
#	259776
#	273488
#	286325
#	295785
#
# Disc length: 4145 seconds
#
# Revision: 1
# Processed by: cddbd v1.5.1PL2 Copyright (c) Steve Scherf et al.
# Submitted via: CDex 1.51
#
DISCID=30102f14
DTITLE=Various Artist - Music City USA Vol. 3
DYEAR=2002
DGENRE=Country
TTITLE0=Brooks and Dunn - Olny In America
TTITLE1=Sherrié Austin - Jolene
TTITLE2=Nickel Creek - The Lighthouse's Tale
TTITLE3=Reba McEntrie - Sweet Music Man
TTITLE4=Kenny Chesney - Young
TTITLE5=Martina McBride - When God-Fearin' Woman Get The Blues
TTITLE6=Emerson Drive - I Should Be Sleeping
TTITLE7=Alan Jackson - It's Alright To Be A Redneck
TTITLE8=Patty Loveless - The Boys Are Back In Town
TTITLE9=Earl Scruggs and Friends - Foggy Mountain Breakdown
TTITLE10=Teresa - Brave New Girl (Cady's Song)
TTITLE11=Gary Allan - Man On Me
TTITLE12=Lee Ann Womack - Something Worth Leaving Behind
TTITLE13=Toby Keith - My List
TTITLE14=Chely Wright - Jezebel
TTITLE15=Steve Azar - I Don't Have To Me (*Til Monday)
TTITLE16=Meredith Edwards - A Rose Is A Rose
TTITLE17=Martin Delray - Get Rythm
TTITLE18=The Cactus Brothers - Fisher's Hornpipe
TTITLE19=Mary-Chapin Carpenter - Down At The Twist And Shout
EXTD=YEAR: 2002
EXTT0=
EXTT1=
EXTT2=
EXTT3=
EXTT4=
EXTT5=
EXTT6=
EXTT7=
EXTT8=
EXTT9=
EXTT10=
EXTT11=
EXTT12=
EXTT13=
EXTT14=
EXTT15=
EXTT16=
EXTT17=
EXTT18=
EXTT19=
PLAYORDER=
